<svg xmlns="http://www.w3.org/2000/svg" viewBox="0 0 192 192">
  <rect width="192" height="192" rx="28" fill="#0E0E10"/>
  <path d="M34 46c21 0 42 5 62 20v91c-18-12-39-18-62-18V46Z" fill="#B51F32"/>
  <path d="M158 46c-21 0-42 5-62 20v91c18-12 39-18 62-18V46Z" fill="#FAFAF8"/>
  <path d="M96 66v91" stroke="#FAFAF8" stroke-width="7"/>
  <path d="M96 66v91" stroke="#B51F32" stroke-width="3" transform="translate(5)"/>
  <path d="M48 61c14 1 27 5 38 12M48 82c14 1 27 5 38 12M144 61c-14 1-27 5-38 12M144 82c-14 1-27 5-38 12" fill="none" stroke="#0E0E10" stroke-linecap="round" stroke-width="5" opacity=".72"/>
</svg>
